<?xml version="1.0" encoding="UTF-8" standalone="no"?>
<svg width="209.67578" height="176.51596" version="1.1" viewBox="0 0 209.67578 176.51595" id="svg58" sodipodi:docname="logo.svg" inkscape:version="1.2.2 (732a01da63, 2022-12-09)" inkscape:export-filename="logo.svg" inkscape:export-xdpi="96" inkscape:export-ydpi="96" xmlns:inkscape="http://www.inkscape.org/namespaces/inkscape" xmlns:sodipodi="http://sodipodi.sourceforge.net/DTD/sodipodi-0.dtd" xmlns="http://www.w3.org/2000/svg" xmlns:svg="http://www.w3.org/2000/svg" xmlns:inkstitch="http://inkstitch.org/namespace">
  <defs id="defs62" />
  <sodipodi:namedview id="namedview60" pagecolor="#ffffff" bordercolor="#000000" borderopacity="0.25" inkscape:showpageshadow="2" inkscape:pageopacity="0.0" inkscape:pagecheckerboard="true" inkscape:deskcolor="#d1d1d1" showgrid="false" inkscape:zoom="3.5887189" inkscape:cx="114.52555" inkscape:cy="65.622302" inkscape:window-width="1920" inkscape:window-height="991" inkscape:window-x="-9" inkscape:window-y="-9" inkscape:window-maximized="1" inkscape:current-layer="layer9" />
  <path id="path250" style="display:inline;fill:#42d7f5;fill-opacity:1;stroke:none;stroke-width:1.42519;stroke-dasharray:none;stroke-dashoffset:0;stroke-opacity:1" d="M 150.55078,4.127515e-7 C 145.9464,4.4335562 135.8488,42.961579 136.4336,46.177735 c 0.58496,3.21719 9.65277,6.432813 0.8789,4.824219 -8.77386,-1.608596 -28.22463,5.851035 -25.88477,3.218749 2.33987,-2.632223 -0.58494,-27.639453 -1.16992,-29.248046 -0.58496,-1.608597 -6.7278,-2.779151 -3.94922,1.900391 2.7786,4.679542 0.43885,26.470458 -0.73046,26.324218 -5.914272,-1.312261 -11.83933,-5.33955 -18.574224,-4.388672 -2.590512,0.190698 -6.814126,6.207159 -12.220704,7.234375 -0.731136,0.21936 -1.964156,5.050538 -3.865234,4.904298 -1.901062,-0.146241 -1.169599,-5.411183 -1.023437,-7.166017 0.14624,-1.754837 3.802291,-4.533599 5.849609,-8.189452 C 77.791396,41.935887 63.313273,-0.47334357 58.048828,1.4277347 52.784319,3.328813 45.618754,52.173191 47.666015,55.244141 c 2.04732,3.070945 5.223532,-1.995651 6.433594,0.730469 2.03256,4.579174 1.862008,11.206294 -2.046875,13.601562 C 42.12693,75.658631 36.08417,84.596728 29.677733,93.41211 27.404889,96.539626 25.139394,100.99907 24.085937,103.57422 16.571454,122.37978 13.09184,138.60316 6.812499,156.24023 4.1047198,163.84598 1.9796648,169.97923 -7.4848074e-8,175.74609 H 7.2714834 c 3.2830676,-0.0611 6.5627536,-0.0483 9.8417966,0.006 3.219469,8.1e-4 6.439041,0.002 9.658204,0.002 9.018304,0.005 18.036403,0.0111 27.054688,0.037 9.905176,0.0326 19.810472,0.0651 29.714842,0.20507 2.886839,0.0436 5.773682,0.11275 8.660157,0.17384 0.138639,-0.01 0.277344,-0.0166 0.416016,-0.0253 1.282897,-0.11101 2.565237,-0.23122 3.849603,-0.32422 1.168261,-0.0768 2.339435,-0.096 3.509771,-0.11528 1.148889,-0.0473 2.293799,0.0111 3.437499,0.11718 1.07489,0.13397 2.15163,0.23655 3.23243,0.30664 1.14436,0.0621 2.29175,0.0736 3.43749,0.086 1.22996,0.0127 2.45949,0.0166 3.68946,0.0195 0.82967,-0.0922 1.66263,-0.15439 2.4961,-0.19727 0.80121,-0.031 1.59556,-0.14221 2.39452,-0.20898 1.03393,-0.0757 2.07119,-0.10167 3.10743,-0.12115 1.10872,-0.0163 2.21734,-0.0204 3.32617,-0.0234 1.02798,-0.003 2.056,-0.003 3.08399,-0.003 1.12417,0.0369 2.24602,0.13033 3.36913,0.18944 0.83695,0.0421 1.67387,0.0586 2.51171,0.0703 1.0143,0.0111 2.02864,0.0143 3.04298,0.0158 1.3385,-0.0261 2.67402,0.0261 4.00977,0.10546 0.96669,0.0624 1.93411,0.10451 2.90234,0.13476 0.99467,0.0184 1.98382,0.14347 2.97656,0.19921 1.11179,0.0561 2.22494,0.0792 3.33789,0.0957 0.99471,0.0127 1.9896,0.0185 2.98438,0.0215 1.06609,0.003 2.13115,0.003 3.19726,0.003 1.45636,4.1e-4 2.91279,-6e-5 4.36915,0 1.20191,6e-5 2.40355,0 3.60546,0 0.47266,3e-5 0.94531,0 1.41797,0 0.38696,-0.005 0.77369,-0.0212 1.15624,-0.0839 0.78392,-0.10863 1.56109,-0.24303 2.33985,-0.38281 0.99173,-0.18095 1.98504,-0.33634 2.98828,-0.43946 1.23067,-0.11069 2.46643,-0.1441 3.70117,-0.17186 1.11854,-0.0225 2.23676,-0.0263 3.35547,-0.0312 0.93314,-0.003 1.86765,-0.002 2.80079,-0.002 1.0471,-0.0272 2.09072,0.031 3.13477,0.10356 1.00935,0.0751 2.0215,0.10784 3.0332,0.1308 1.38304,0.0233 2.76522,0.0301 4.14843,0.0352 1.28529,-0.0252 2.56789,0.022 3.84962,0.11132 0.68195,0.0265 1.35972,0.0893 2.0371,0.16211 0.82175,-0.21798 1.78436,-0.32236 2.89453,-0.26757 0.59492,0.0293 1.18221,-0.022 1.77345,-0.0762 0.68881,-0.12748 1.41615,-0.0287 2.10155,-0.1582 0.80398,-0.1061 1.61297,-0.17793 2.42188,-0.23242 0.50643,-0.10815 1.0315,-0.15502 1.54883,-0.20703 0.1661,-0.0166 0.32403,-0.0234 0.48438,-0.0332 -2.23982,-5.35209 -4.62503,-10.81438 -7.31641,-16.44726 -10.22665,-21.40189 -14.3176,-32.66665 -19.87695,-52.35939 -3.5744,-16.789748 -14.14097,-28.92952 -27.5879,-36.468743 l 0.20703,-13.443359 c 0,0 2.27516,0.310682 3.9297,-3.205077 1.65453,-3.516443 -2.1732,-53.15223437 -8.48048,-53.04882883988 z" />
  <path style="fill:#008000;stroke-width:0.418979" d="m 105.72341,53.174779 c 0.0776,-0.74971 1.42264,-5.640198 1.68117,-10.862323 0.24079,-4.864133 0.0279,-13.221918 -0.90562,-14.808823 -1.2926,-2.197432 -1.31131,-3.698421 0.20689,-4.032929 1.52528,-0.336081 3.47502,0.232369 3.92953,2.378396 0.72676,3.431611 1.05744,11.103375 1.44924,15.450689 0.25202,2.796287 1.07466,11.321832 -0.8288,13.426115 5.89192,-4.447531 22.59774,-7.128746 28.41285,-4.058017 7.3633,4.213291 4.2204,11.782763 1.467,17.750765 -1.24377,2.70532 -4.69304,4.888537 -9.30156,3.88669 -2.37839,-0.517041 -10.04623,-2.46614 -13.64991,-4.136341 -6.2471,4.950552 -16.83648,8.511831 -24.09417,8.479493 -5.480651,-0.439486 -9.631639,-2.05633 -10.9613,-8.686308 -1.299323,-6.478709 -6.364191,-8.063257 -10.804122,-7.811278 5.250604,-13.783207 24.489596,-14.788721 33.398802,-6.976129 z" id="path887" sodipodi:nodetypes="cssssscccsccscc" inkstitch:auto_fill="True" />
  <path id="path373" style="display:inline;fill:#f7f3fa;fill-opacity:1;stroke-width:0.418979" inkscape:label="white base" d="m 105.72266,136.99218 c -17.336802,-0.3714 -48.912914,6.68 -65.818363,22.55665 -5.098767,4.78856 -9.369154,10.27475 -13.050782,16.20507 8.990992,0.005 17.981693,0.0111 26.972657,0.0371 9.90521,0.0326 19.810439,0.0651 29.714842,0.20507 2.949997,0.0445 5.9,0.0991 8.849611,0.16211 0.0755,-0.005 0.151038,-0.01 0.226562,-0.0143 1.282897,-0.11101 2.565237,-0.23122 3.849603,-0.32422 1.168261,-0.0768 2.339435,-0.096 3.509771,-0.11528 1.148889,-0.0473 2.293799,0.0111 3.437499,0.11718 1.07489,0.13397 2.15163,0.23655 3.23243,0.30664 1.14436,0.0621 2.29175,0.0736 3.43749,0.086 1.22996,0.0127 2.45949,0.0166 3.68946,0.0195 0.82967,-0.0922 1.66263,-0.15439 2.4961,-0.19727 0.80121,-0.031 1.59556,-0.14221 2.39452,-0.20898 1.03393,-0.0757 2.07119,-0.10167 3.10743,-0.12115 1.10872,-0.0163 2.21734,-0.0204 3.32617,-0.0234 1.02798,-0.003 2.056,-0.003 3.08399,-0.003 1.12419,0.0369 2.24602,0.13033 3.36913,0.18944 0.83695,0.0421 1.67387,0.0586 2.51171,0.0703 1.0143,0.0111 2.02864,0.0143 3.04298,0.0158 1.3385,-0.0261 2.67402,0.0242 4.00977,0.10356 0.96671,0.0624 1.93411,0.10641 2.90234,0.13666 0.99467,0.0184 1.98382,0.14347 2.97656,0.19921 1.11179,0.0561 2.22494,0.0792 3.33789,0.0957 0.99471,0.0127 1.9896,0.0185 2.98438,0.0215 1.06611,0.003 2.13115,0.003 3.19726,0.003 1.45636,4.1e-4 2.91279,-6e-5 4.36915,0 1.20191,6e-5 2.40355,0 3.60546,0 0.47266,3e-5 0.94531,0 1.41797,0 0.38696,-0.005 0.77369,-0.0212 1.15624,-0.0839 0.78392,-0.10863 1.56109,-0.24303 2.33985,-0.38281 0.99173,-0.18095 1.98502,-0.33634 2.98828,-0.43946 1.23067,-0.11069 2.46643,-0.1441 3.70117,-0.17186 1.11854,-0.0225 2.23676,-0.0263 3.35547,-0.0312 0.2141,-6.8e-4 0.42838,4.3e-4 0.64259,0 -2.88527,-4.53855 -6.18015,-8.76716 -10.01954,-12.5293 -16.5126,-16.18029 -42.41733,-25.41494 -64.34765,-25.88476 z" />
  <path id="path487" style="opacity:0.74;fill:#41d7f3;fill-opacity:1;stroke-width:0.418979" d="m 48.382811,169.0625 c -3.117347,0 -7.345265,2.41245 -10.10742,6.70703 1.79686,0.002 3.593762,0.005 5.390623,0.008 0.640534,-0.29824 1.201597,-0.51926 1.615236,-0.61327 2.274979,-0.51704 5.583752,0.41406 7.238281,0.41406 1.654525,0 -0.103801,-6.51562 -4.13672,-6.51562 z" />
  <path style="opacity:0.74;fill:#41d7f3;fill-opacity:1;stroke-width:0.418979" d="m 65.962862,173.19953 c 4.239754,-0.41362 11.685158,-6.41132 19.5442,-3.7227 7.859035,2.68863 -4.446564,-8.16927 -9.720389,-7.23859 -5.273841,0.93068 -9.513578,7.96245 -9.823811,10.96129 z" id="path489" inkstitch:auto_fill="True" />
  <path style="opacity:0.74;fill:#41d7f3;fill-opacity:1;stroke-width:0.418979" d="m 105.98192,169.68364 c 2.17158,2.48182 6.30793,-4.03292 8.37609,-3.72269 2.06817,0.31022 11.58175,3.10225 10.9613,1.65454 -0.62045,-1.44773 -7.342,-9.41018 -13.64991,-8.78973 -6.30793,0.62045 -5.89429,8.99654 -5.68748,10.85788 z" id="path491" inkstitch:auto_fill="True" />
  <path style="opacity:0.74;fill:#41d7f3;fill-opacity:1;stroke-width:0.418979" d="m 143.82942,171.23477 c 0,0 0.20681,-5.68746 4.75678,-7.4454 4.54997,-1.75794 16.13173,10.34084 14.16696,10.85788 -1.96475,0.51705 -10.34084,-7.65221 -18.92374,-3.41248 z" id="path493" inkstitch:auto_fill="True" />
  <path style="fill:#000000;fill-opacity:1;stroke-width:0.450843" d="m 37.78947,88.48086 -8.632449,41.56119 18.692199,1.31616 c 0,0 -12.187263,-4.33507 -12.14965,-7.24822 0.04968,-3.84727 3.674909,-30.966948 5.004714,-32.231663 1.767344,-1.680845 1.624037,0.113652 7.792289,-2.380672 C 49.797228,88.971696 37.78947,88.48086 37.78947,88.48086 Z" id="path2024" sodipodi:nodetypes="cccsssc" inkstitch:auto_fill="True" />
  <path style="fill:#000000;fill-opacity:1;stroke-width:0.450843" d="m 179.94179,130.12048 -14.56785,1.13078 c 0,0 9.44135,-1.80531 9.65775,-5.81047 0.2164,-4.00514 -5.48471,-29.400575 -6.10624,-32.037282 -0.63012,-2.673124 -1.3145,-2.436473 -6.86538,-4.400008 -1.52541,-0.539592 8.95562,-0.610059 8.95562,-0.610059 2.4344,5.659844 8.24215,29.943019 8.9261,41.727039 z" id="path2026" sodipodi:nodetypes="ccssscc" inkstitch:auto_fill="True" />
  <path style="fill:#000000;fill-opacity:1;stroke-width:0.450843" d="m 46.177464,100.21792 v 4.69174 l 20.125275,0.22887 -0.194273,-2.06889 z" id="path2028" sodipodi:nodetypes="ccccc" inkstitch:auto_fill="True" />
  <path style="fill:#000000;fill-opacity:1;stroke-width:0.450843" d="m 46.285665,114.97976 -0.108204,4.9206 19.979032,-2.77859 0.03804,-2.14201 z" id="path2030" sodipodi:nodetypes="ccccc" inkstitch:auto_fill="True" />
  <path style="fill:#000000;fill-opacity:1;stroke-width:0.450843" d="m 143.76944,101.78007 0.0302,1.88501 19.7752,1.47345 v -4.69175 z" id="path2032" sodipodi:nodetypes="ccccc" inkstitch:auto_fill="True" />
  <path style="fill:#000000;fill-opacity:1;stroke-width:0.450843" d="m 143.63878,115.09406 0.23166,2.13712 19.89031,2.71789 v -4.85498 z" id="path2034" sodipodi:nodetypes="ccccc" inkstitch:auto_fill="True" />
  <g inkscape:groupmode="layer" id="layer9" inkscape:label="eyes" transform="matrix(1.6569272,0,0,1.7523675,-72.193765,-65.879087)">
    <path style="opacity:1;fill:#000000;fill-opacity:1;stroke-width:0.264583" d="m 85.562965,98.676771 c 0.04618,1.29291 5.351351,7.166439 6.88013,7.064829 1.481935,-0.0985 6.972483,-6.464548 7.018658,-7.111004 0.04618,-0.646457 -5.228348,-6.983274 -6.88013,-6.972483 -1.606953,0.0105 -6.972482,6.464554 -7.018658,7.018658 z" id="path2036" sodipodi:nodetypes="csssc" inkstitch:auto_fill="True" />
    <path style="opacity:1;fill:#ffffff;fill-opacity:1;stroke-width:0.184594" d="m 87.663829,98.609693 c 0.03223,0.902041 4.349106,4.928987 4.800123,4.928987 0.451018,0 4.864554,-4.510182 4.896768,-4.961202 0.03225,-0.45102 -4.510187,-4.864558 -4.800128,-4.864558 -0.28993,0 -4.864552,4.510187 -4.896763,4.896773 z" id="path2036-8" inkstitch:auto_fill="True" />
    <path style="opacity:1;fill:#1a1a1a;fill-opacity:1;stroke-width:0.0860659" d="m 90.249645,98.674181 c 0.01502,0.420569 2.027746,2.298109 2.238029,2.298109 0.210286,0 2.268069,-2.102841 2.283089,-2.313128 0.01506,-0.210285 -2.102843,-2.26807 -2.238027,-2.26807 -0.135184,0 -2.26807,2.102847 -2.283091,2.283089 z" id="path2036-7" inkstitch:auto_fill="True" />
    <path style="opacity:1;fill:#000000;fill-opacity:1;stroke-width:0.264583" d="m 113.5913,98.676771 c 0.0462,1.29291 5.52788,7.125269 6.88012,7.064829 1.43988,-0.0644 6.97249,-6.464549 7.01866,-7.110999 0.0462,-0.64646 -5.46599,-6.972485 -6.88013,-6.972485 -1.1658,0 -6.97248,6.464555 -7.01865,7.018655 z" id="path2036-3" sodipodi:nodetypes="csssc" inkstitch:auto_fill="True" />
    <path style="opacity:1;fill:#ffffff;fill-opacity:1;stroke-width:0.184594" d="m 115.69216,98.609701 c 0.0322,0.90204 4.3491,4.928979 4.80012,4.928979 0.45102,0 4.86456,-4.510179 4.89677,-4.961199 0.0323,-0.45102 -4.51019,-4.864558 -4.80013,-4.864558 -0.28993,0 -4.86455,4.510188 -4.89676,4.896778 z" id="path2036-8-6" inkstitch:auto_fill="True" />
    <path style="opacity:1;fill:#1a1a1a;fill-opacity:1;stroke-width:0.0860659" d="m 118.27797,98.674181 c 0.015,0.42057 2.02775,2.298109 2.23803,2.298109 0.21029,0 2.26807,-2.102839 2.28309,-2.313129 0.0151,-0.21028 -2.10284,-2.26807 -2.23802,-2.26807 -0.13519,0 -2.26807,2.10285 -2.2831,2.28309 z" id="path2036-7-3" inkstitch:auto_fill="True" />
  </g>
  <path style="fill:#000000;fill-opacity:1;stroke-width:0.450843" d="m 91.513431,130.02767 c -0.919706,-0.85825 9.846229,-13.44586 13.038149,-13.67473 3.19191,-0.22887 15.20215,12.24431 14.33655,13.33143 -0.86559,1.08712 -12.38894,-10.92833 -13.79554,-10.98556 -1.40662,-0.0573 -10.711852,10.75669 -13.579159,11.32886 z" id="path2110" inkstitch:auto_fill="True" />
</svg>
